<svg xmlns="http://www.w3.org/2000/svg" viewBox="0 0 128 128"><defs><linearGradient id="g" x1="0" y1="0" x2="0" y2="1"><stop offset="0" stop-color="hsl(332, 90%, 84%)"/><stop offset="1" stop-color="hsl(332, 67%, 63%)"/></linearGradient></defs><rect x="4" y="4" width="120" height="120" rx="36" fill="url(#g)"/><g fill="#fff"><ellipse cx="38" cy="54" rx="10" ry="13" transform="rotate(-24 38 54)"/><ellipse cx="55" cy="36" rx="10" ry="13" transform="rotate(-8 55 36)"/><ellipse cx="76" cy="36" rx="10" ry="13" transform="rotate(8 76 36)"/><ellipse cx="92" cy="54" rx="10" ry="13" transform="rotate(24 92 54)"/><path d="M65 58c-14 0-31 18-31 32 0 9 7 13 15 13 6 0 10-3 16-3s10 3 16 3c8 0 15-4 15-13 0-14-17-32-31-32z"/></g></svg>
